<svg width="147" height="190" viewBox="0 0 147 190" fill="none" xmlns="http://www.w3.org/2000/svg">
<g clip-path="url(#clip0)">
<path d="M115.448 9.05658L103.588 8.83267L115.689 21.4899L115.578 27.3988L90.1624 26.919L90.293 19.9991L102.629 20.232L90.5276 7.57473L90.6393 1.65837L115.586 2.12935L115.448 9.05658ZM85.4626 8.49049L73.5865 8.26628L85.7044 20.9238L85.5928 26.8327L60.1694 26.3527L60.3 19.4328L72.6363 19.6657L60.5346 7.00849L60.6463 1.09213L85.5934 1.56311L85.4626 8.49049ZM55.7629 8.21447L42.9664 7.97289L42.7617 18.817L55.5582 19.0586L55.422 26.2706L33.5187 25.8571L33.9957 0.588989L55.8991 1.0025L55.7629 8.21447Z" fill="#131313"/>
<path d="M13.2983 172.441L2.83965 36.8152L145.821 39.5145L130.235 174.626L71.402 188.574L13.2983 172.441Z" fill="black"/>
<path d="M71.708 177.072L119.248 165.795L132.557 50.3369L74.1214 49.2336L71.708 177.072Z" fill="#747474"/>
<path d="M73.1955 98.2796L96.8831 98.7268L98.8349 81.7575L73.5164 81.2795L73.8297 64.6837L118.718 65.5312L118.206 69.9791L112.942 115.654L72.8817 114.898L73.1955 98.2796Z" fill="white"/>
<path d="M72.4783 141.403L72.3975 141.402L52.5584 136.03L51.5328 122.766L33.5773 122.427L35.596 148.543L72.0871 158.702L72.192 158.704L72.5186 141.404L72.4783 141.403Z" fill="#EBEBEB"/>
<path d="M95.0653 114.59L92.4902 136.769L72.4301 141.388L72.1035 158.687L108.976 149.944L109.295 147.14L113.021 114.921L95.0654 114.582L95.0653 114.59Z" fill="white"/>
<path d="M73.8943 64.6848L73.5809 81.288L30.3554 80.472L30.0545 76.7354L29.398 68.3023L29.0542 63.8383L73.8943 64.6848ZM73.1955 98.2795L72.882 114.883L53.1747 114.511L52.8979 110.775L52.2414 102.341L51.8976 97.8774L73.1874 98.2793L73.1955 98.2795Z" fill="#EBEBEB"/>
</g>
<defs>
<clipPath id="clip0">
<rect width="143.007" height="187.245" fill="white" transform="translate(3.53442 0.013916) rotate(1.08156)"/>
</clipPath>
</defs>
</svg>
