<svg width="136" height="185" viewBox="0 0 136 185" fill="none" xmlns="http://www.w3.org/2000/svg">
<path d="M12.3766 170.133L0 36.3616H136L123.61 170.112L67.9165 184.991L12.3766 170.133Z" fill="black"/>
<path d="M68 173.619L113.002 161.595L123.591 47.2999H68V173.619Z" fill="#767676"/>
<path d="M68 96.914H45.471L43.9147 80.1134H68V63.7067H25.3071L25.7151 68.1083L29.8996 113.32H68V96.914ZM68 139.523L67.9252 139.543L48.9637 134.609L47.7515 121.524H30.6606L33.0461 147.285L67.9221 156.614L68 156.593V139.523Z" fill="#EBEBEB"/>
<path d="M12.6536 0.00891113H21.3056V8.24625H29.2202V0.00891113H37.8726V24.9538H29.2202V16.6009H21.3056V24.9538H12.6542L12.6536 0.00891113ZM49.2512 8.2814H41.6345V0.00891113H65.5251V8.2814H57.9048V24.9538H49.2515V8.2814H49.2512ZM69.3161 0.00891113H78.3385L83.8882 8.77404L89.4327 0.00891113H98.4581V24.9538H89.84V12.5895L83.8873 21.4589H83.7386L77.7818 12.5895V24.9538H69.3158V0.00891113H69.3161ZM102.763 0.00891113H111.418V16.7088H123.586V24.9538H102.763V0.00891113Z" fill="black"/>
<path d="M67.9413 96.914V113.32H88.9069L86.9303 134.599L67.9413 139.537V156.606L102.845 147.285L103.1 144.512L107.102 101.32L107.517 96.914H102.93H67.9413ZM67.9413 63.7067V80.1134H109.067L109.408 76.4255L110.183 68.1083L110.591 63.7067H67.9413Z" fill="white"/>
</svg>
