<svg viewBox="0 0 262 306" fill="none" xmlns="http://www.w3.org/2000/svg">
    <path d="M237.421 242.562H235.685V241.93H240.361V242.562H238.635V245.716H237.421V242.562ZM246.747 242.726H246.72L244.998 245.717H244.211L242.501 242.726H242.48V245.717H241.336V241.931H243.02L244.605 244.612L246.185 241.931H247.863V245.717H246.746L246.747 242.726Z" fill="#0E0E0E" />
    <path d="M81.9487 165.135C81.9487 165.135 69.8653 169.707 90.548 171.254C115.605 173.114 128.411 172.847 156.023 169.447C156.023 169.447 163.283 172.409 173.421 174.974C111.521 192.236 33.3295 173.974 81.9487 165.135ZM74.3848 142.609C74.3848 142.609 60.8321 149.136 81.5302 150.529C108.296 152.326 129.434 152.473 166.011 147.89C166.011 147.89 171.071 151.227 179.026 153.053C104.184 167.292 20.8251 154.175 74.3848 142.609Z" fill="#0E0E0E" />
    <path d="M138.15 104.397C153.403 115.823 134.144 126.106 134.144 126.106C134.144 126.106 172.87 113.097 155.085 96.807C138.473 81.615 125.735 74.0676 194.697 48.043C194.698 48.0424 86.4486 65.6339 138.15 104.397Z" fill="#0E0E0E" />
    <path d="M220.018 181.796C220.018 181.796 228.96 186.591 210.17 190.299C174.441 197.342 61.4602 199.469 30.0747 190.58C18.7924 187.386 39.9499 182.954 46.6053 182.024C53.5461 181.045 57.5125 181.227 57.5125 181.227C44.9655 175.476 -23.5864 192.52 22.6916 197.401C148.898 210.719 252.755 191.404 220.018 181.796ZM87.7594 119.269C87.7594 119.269 30.2904 128.151 67.4082 131.376C83.0805 132.742 114.323 132.433 143.423 130.846C167.207 129.541 191.089 126.766 191.089 126.766C191.089 126.766 182.703 129.103 176.635 131.798C118.276 141.785 5.53802 137.139 37.994 126.923C65.442 118.29 87.7594 119.269 87.7594 119.269ZM190.852 156.765C250.176 136.706 222.748 117.429 203.602 120.027C198.909 120.662 196.817 121.213 196.817 121.213C196.817 121.213 198.56 119.437 201.885 118.669C239.761 110.004 268.89 144.223 189.659 157.776C189.659 157.776 190.578 157.243 190.852 156.765Z" fill="#0E0E0E" />
    <path d="M155.085 6.01892C155.085 6.01892 187.94 27.4036 123.924 60.2886C72.5891 86.667 112.218 101.708 123.902 118.893C93.9383 101.3 71.9482 85.8152 86.7009 71.4023C108.354 50.2456 168.341 39.988 155.085 6.01892Z" fill="#0E0E0E" />
    <path d="M93.5889 211.119C150.533 213.491 237.977 209.803 240.047 192.272C240.047 192.272 236.067 198.917 192.986 204.196C144.384 210.147 84.4381 209.453 48.8842 205.639C48.8859 205.637 56.1634 209.558 93.5889 211.119Z" fill="#0E0E0E" />
    <path d="M84.2566 278.111C78.8848 281.143 73.2113 282.844 68.1198 282.844C60.8526 282.844 56.9262 280.009 56.9262 275.461C56.9262 270.542 61.1338 266.945 78.0104 266.945H84.2558L84.2566 278.111ZM99.0792 288.993V255.308C99.0792 246.703 91.5367 241.025 73.351 241.025C62.7344 241.025 53.4345 242.731 45.8757 244.906L48.0575 250.869C54.0089 249.448 61.7125 248.124 69.2738 248.124C79.7498 248.124 84.2566 250.869 84.2566 256.543V260.801H79.028C53.5751 260.801 42.0934 267.23 42.0934 276.879C42.0934 285.207 49.6598 289.941 63.9062 289.941C73.0638 289.941 79.8998 287.481 86.2901 283.88L87.4501 288.994L99.0792 288.993ZM148.547 288.993H130.061L107.812 241.878H123.957L137.762 270.825L140.831 279.531C147.815 266.944 152.756 254.174 155.226 241.878H170.931C166.723 257.392 159.151 274.421 148.547 288.993ZM219.468 278.111C214.086 281.143 208.403 282.844 203.31 282.844C196.056 282.844 192.119 280.009 192.119 275.461C192.119 270.542 196.335 266.945 213.211 266.945H219.468V278.111ZM234.288 288.993V255.308C234.288 246.703 226.728 241.025 208.562 241.025C197.939 241.025 188.635 242.731 181.08 244.906L183.259 250.869C189.212 249.448 196.93 248.124 204.486 248.124C214.954 248.124 219.468 250.869 219.468 256.543V260.801H214.23C188.77 260.801 177.292 267.23 177.292 276.879C177.292 285.207 184.853 289.941 199.097 289.941C208.26 289.941 215.094 287.481 221.494 283.88L222.658 288.994L234.288 288.993ZM25.8407 296.993C21.6151 301.008 14.7902 304.184 7.3184 305.98L0 300.377C5.68716 298.478 10.5647 295.411 12.8308 292.555C14.7911 290.015 15.6024 286.741 15.6024 278.911V225.122H31.3506V278.174C31.3497 288.641 30.0636 292.87 25.8407 296.993Z" fill="#0B0B0B" />
</svg>
