<svg width="162" height="142" viewBox="0 0 162 142" fill="none" xmlns="http://www.w3.org/2000/svg">
<path d="M0 0H162V142H0V0Z" fill="black"/>
<path d="M148.741 108.133C147.556 101.654 142.736 96.2144 128.46 91.1392C123.502 89.1414 117.974 87.7108 116.326 84.4171C115.741 82.5004 115.664 81.4205 116.033 80.2597C117.096 76.4937 122.224 75.3194 126.289 76.3992C128.907 77.1686 131.386 78.937 132.88 81.758C139.871 77.7897 139.856 77.8165 144.737 75.0901C142.951 72.6604 141.996 71.5399 140.826 70.5007C136.622 66.3838 130.894 64.2646 121.731 64.4265C120.145 64.602 118.543 64.7909 116.957 64.9665C112.384 65.9788 108.026 68.0845 105.469 70.9056C97.8006 78.5321 99.9873 91.8815 109.319 97.3754C118.513 103.423 132.018 104.799 133.742 110.455C135.421 117.38 127.937 119.62 120.499 118.824C115.017 117.825 111.968 115.382 108.672 110.941C102.605 114.019 102.605 114.019 96.3686 117.164C97.8469 119.998 99.4021 121.281 101.882 123.737C113.616 134.171 142.982 133.658 148.249 117.866C148.464 117.325 149.881 113.708 148.741 108.133ZM88.0683 65.2633H72.9154C72.9154 76.7367 72.854 88.1291 72.854 99.6025C72.854 106.905 73.2851 113.6 71.93 115.652C69.7125 119.688 63.9686 119.188 61.3507 118.405C58.6867 117.258 57.3315 115.625 55.7608 113.317C55.3296 112.655 55.0062 112.142 54.8983 112.102C50.7869 114.302 46.6905 116.515 42.5789 118.716C44.6272 122.401 47.6453 125.6 51.5105 127.678C57.2852 130.715 65.0464 131.647 73.1619 130.014C78.4439 128.664 83.0019 125.87 85.3888 121.618C88.8382 116.043 88.0991 109.294 88.0683 101.83C88.1453 89.6544 88.0683 77.4791 88.0683 65.2633Z" fill="white"/>
</svg>
