<svg viewBox="0 0 205 61" fill="none" xmlns="http://www.w3.org/2000/svg">
    <path fill-rule="evenodd" clip-rule="evenodd" d="M188.344 3.40946C188.125 3.47126 187.904 4.15301 187.904 4.52446C187.86 7.00431 187.816 13.5747 187.816 18.0374C187.816 18.1616 187.948 18.4095 188.08 18.4095C188.742 18.4713 190.329 18.5331 191.697 18.5331C193.593 18.5331 194.696 18.1616 195.314 17.7902C196.901 16.6739 197.651 14.2565 197.651 11.5906C197.651 5.579 194.652 3.2852 190.197 3.2852C189.888 3.2234 189.007 3.22341 188.344 3.40946ZM199.725 31.1164C199.725 24.9799 196.505 21.5704 190.683 21.5704C190.418 21.5704 188.565 21.5086 188.124 21.6322C187.992 21.6947 187.816 21.8189 187.816 22.005C187.816 26.4052 187.771 33.4102 187.904 36.1372C187.992 37.3147 188.61 38.9885 189.36 39.4842C190.153 40.1042 191.962 40.2278 193.197 40.2278C196.681 40.2278 199.725 37.5007 199.725 31.1164ZM179.347 0.000671314C179.788 0.000671314 181.111 0.186056 184.507 0.186056C187.727 0.186056 190.285 0.0624655 193.417 0.0624655C197.254 0.0624655 202.547 1.98348 202.547 10.0417C202.547 14.0086 200.562 17.1702 197.96 18.7198C197.828 18.7816 197.828 18.9052 197.96 18.967C201.665 20.2694 204.929 23.4921 204.929 29.5661C204.929 35.5172 202.283 39.2981 198.445 41.6537C196.108 43.079 193.197 43.5747 190.241 43.5747C187.992 43.5747 181.949 43.2033 178.597 43.3276C178.244 43.1408 178.906 40.9095 179.214 40.5381C180.009 40.4756 180.626 40.4138 181.464 40.0417C182.655 39.6085 182.787 39.1121 182.963 36.5711C183.052 34.4016 183.052 26.7148 183.052 21.2608C183.052 13.7608 183.096 8.67814 183.052 6.19896C183.008 4.27795 182.523 3.65731 181.552 3.2852C180.802 3.09982 179.567 2.85129 178.553 2.66591C178.332 2.35559 179.082 0.247851 179.347 0.000671314ZM153.896 38.5546C154.955 39.7314 157.028 40.2271 158.881 40.2271C161.263 40.2271 163.644 39.6085 165.938 36.694C168.276 33.7198 169.908 29.1329 169.908 21.8189C169.908 14.814 168.011 9.11138 164.13 5.76505C161.924 3.8427 159.101 3.03802 155.837 3.03802C154.867 3.03802 153.941 3.09982 153.368 3.47126C153.235 3.59552 152.926 4.15301 152.926 4.46266C152.838 5.70258 152.838 15.2479 152.838 20.8269C152.838 26.5912 152.838 34.6494 152.926 35.579C152.926 36.5093 153.235 37.9346 153.897 38.5546H153.896ZM143.884 0C144.722 0 147.942 0.186056 149.486 0.186056C152.265 0.186056 154.249 0.000671314 159.498 0.000671314C163.909 0.000671314 167.614 1.67383 170.26 4.83477C173.48 8.73993 175.157 14.1329 175.157 20.7026C175.157 30.0625 172.113 35.4554 169.069 38.5546C166.027 41.7155 162.057 43.5747 156.411 43.5747C153.412 43.5747 148.251 43.4512 143.972 43.3887H143.928C143.708 42.8312 144.281 40.6617 144.634 40.5999C145.781 40.4138 146.09 40.3513 146.663 40.0424C147.589 39.546 147.766 38.8642 147.898 36.5711C148.03 32.2938 147.986 27.1494 147.986 21.3226C147.986 17.1702 148.03 9.04958 147.942 6.44614C147.81 4.27728 147.148 3.71911 145.825 3.34699C145.163 3.16161 144.281 2.91309 143.046 2.7277C142.87 2.29313 143.663 0.372112 143.884 0.000671314V0Z" fill="black" />
    <path fill-rule="evenodd" clip-rule="evenodd" d="M90.5138 40.9713C89.4111 40.7852 88.6172 40.538 87.6469 39.9181C87.5145 39.7938 87.2937 39.1745 87.2937 38.926C87.2057 36.7564 87.2058 30.5582 87.2058 26.4058C87.2058 23.0581 86.809 20.1451 85.7943 18.0998C84.6032 15.7435 82.8835 14.3807 80.6777 14.3807C78.7371 14.3807 76.1346 16.2399 73.9732 18.8433C73.9292 18.9051 73.5765 19.3397 73.6205 18.6573C73.6205 17.9755 73.7089 16.612 73.7529 15.6817C73.7973 14.8139 73.4441 14.3807 73.4441 14.3807C72.0327 15.3721 68.0631 16.6738 66.6072 16.8592C65.549 17.1702 65.2842 18.5955 66.3874 19.0912H66.4313C67.6215 19.5869 68.4159 20.1451 69.0329 20.7032C69.4741 21.1989 69.4301 21.8807 69.4301 22.4389C69.4741 27.0869 69.4741 34.2155 69.3422 38.1206C69.2982 39.6702 68.9894 40.2277 68.195 40.4756L68.2835 40.4138C67.6659 40.5998 67.1808 40.7852 66.4309 40.9095C66.1661 41.2816 66.1661 43.265 66.4309 43.699C66.916 43.699 69.4741 43.5129 71.592 43.5129C74.5028 43.5129 76.0027 43.699 76.7521 43.699C77.0609 43.2033 77.1493 41.3434 76.9729 40.9095C76.1346 40.8477 75.517 40.7241 74.944 40.4756C74.1501 40.227 73.9292 39.6702 73.8848 38.3685C73.7973 35.0826 73.7973 28.1408 73.7973 23.4303C73.7973 22.1285 74.0616 21.5086 74.3259 21.1365C75.3407 19.8972 76.9729 19.0294 78.4284 19.0294C79.8398 19.0294 80.7656 19.6494 81.4716 20.4554C82.4418 21.5704 82.7506 23.1824 82.883 24.3599C83.1034 27.0251 83.0154 32.2938 83.0154 36.8807C83.0154 39.3599 82.883 39.9798 82.222 40.2895C81.9127 40.4756 81.1188 40.7241 80.1925 40.847C79.8838 41.2816 79.9722 43.2033 80.1925 43.6372C81.4716 43.6372 82.9714 43.4511 85.1768 43.4511C87.9112 43.4511 89.6759 43.6372 90.3819 43.6372C90.6017 43.265 90.6901 41.4676 90.5138 40.9713ZM102.732 17.2944C100.394 17.2944 98.9384 19.8354 98.9384 23.8017C98.9384 27.8311 100.217 32.4798 103.834 32.4798C104.452 32.4798 105.599 32.1077 106.128 31.2399C106.966 30.1249 107.539 27.8929 107.539 25.5373C107.539 20.3929 105.731 17.2938 102.732 17.2938V17.2944ZM102.423 44.6904C101.541 44.6904 100.923 45.0625 100.526 45.3728C98.6736 47.0453 97.8358 48.6573 97.8358 50.5797C97.8358 52.3764 98.3209 53.8017 99.3796 55.0417C100.659 56.5912 102.423 57.3355 104.672 57.3355C109.171 57.3355 111.156 53.926 111.156 50.5797C111.156 48.2234 110.318 46.6738 108.598 45.8067C107.363 45.0625 105.114 44.6904 102.423 44.6904ZM102.732 60.8067C100.041 60.8067 98.1001 60.0007 96.4243 58.2033C94.7921 56.4676 94.0866 53.8642 94.0866 52.0668C94.0866 51.5711 94.175 50.2069 94.9689 48.9676C95.4536 48.2234 96.5127 46.7981 99.0269 44.3807C99.1148 44.3189 99.1588 44.2571 99.1588 44.1322C99.1588 44.0086 99.0704 43.8843 98.9824 43.8232C96.9095 42.7075 96.2919 40.9095 96.1151 39.9181V39.7938C96.0716 39.4217 95.9832 39.0502 96.3804 38.6781C96.6891 38.3685 97.1303 37.9964 97.615 37.5631C98.3649 36.9425 99.1588 36.2607 99.6439 35.7026C99.7324 35.579 99.7323 35.4554 99.7323 35.3311C99.7323 35.2069 99.6439 35.0826 99.5555 35.0215C96.4688 33.5955 94.9249 30.3721 94.9249 25.5373C94.9249 22.3764 95.9392 19.5251 97.7473 17.7277C98.9824 16.3642 102.07 14.6903 104.099 14.6903H104.231C106.304 14.7521 107.451 15.3721 109.083 16.1781C109.965 16.612 110.804 16.7974 111.951 16.7974C113.67 16.7974 114.42 16.0538 115.037 15.1867C115.082 15.3103 115.17 15.6206 115.214 16.426C115.258 17.232 115.082 18.4094 114.641 19.2772C114.288 19.959 113.494 20.4554 112.7 20.4554H112.479C111.685 20.3311 111.332 20.2069 111.332 20.2069L111.156 20.3311C111.112 20.4554 111.156 20.579 111.2 20.765L111.245 20.8893C111.333 21.4468 111.509 23.1199 111.509 23.5545C111.509 28.6371 110.054 30.8678 108.51 32.5416C107.01 34.0912 105.29 35.0826 103.349 35.3311C103.305 35.3311 103.129 35.3311 102.732 35.3929C102.511 35.3929 102.202 35.4554 102.158 35.4554H102.114C101.761 35.579 100.879 36.1989 100.879 37.2521C100.879 38.1818 101.276 39.2981 103.173 39.4841C103.569 39.5459 103.966 39.5459 104.408 39.6084C106.922 39.8556 110.054 40.1659 111.509 40.8477C113.538 41.9009 114.817 44.4425 114.817 47.4799C114.817 52.0674 112.48 56.3441 108.598 59.0086C106.702 60.1867 104.805 60.8067 102.732 60.8067ZM127.873 17.6041C126.947 17.6041 126.109 17.9131 125.491 18.533C123.771 20.0208 122.889 22.9964 122.889 27.3348C122.889 35.4554 125.8 41.158 129.946 41.158C131.181 41.158 132.151 40.6616 132.989 39.6702C134.268 38.1818 134.93 35.2069 134.93 31.0539C134.93 22.9964 132.063 17.6034 127.873 17.6034L127.873 17.6041ZM128.667 44.1329C121.169 44.1329 118.478 36.385 118.478 29.1328C118.478 24.0502 119.934 20.1451 122.844 17.3556C124.918 15.5581 127.388 14.5667 129.593 14.5667C135.327 14.5667 139.341 20.3311 139.341 28.6371C139.341 34.2773 137.753 38.7399 134.71 41.4676C133.254 42.8311 130.74 44.1329 128.667 44.1329H128.667ZM50.0671 17.6034C49.1408 17.6034 48.303 17.9131 47.685 18.533C45.9652 20.0208 45.0829 22.9964 45.0829 27.3348C45.0829 35.4554 47.9937 41.158 52.1401 41.158C53.3752 41.158 54.3454 40.6616 55.1838 39.6702C56.4624 38.1818 57.1243 35.2069 57.1243 31.0539C57.1243 22.9964 54.3015 17.6034 50.0671 17.6034ZM50.8611 44.1329C43.3627 44.1329 40.6722 36.385 40.6722 29.1328C40.6722 24.0502 42.1276 20.1451 45.0384 17.3556C47.1119 15.5581 49.582 14.5667 51.7874 14.5667C57.5215 14.5667 61.535 20.3311 61.535 28.6371C61.535 34.2773 59.9472 38.7399 56.9035 41.4676C55.4921 42.8311 52.978 44.1329 50.8611 44.1329ZM0.445929 43.5129C0.357505 43.3275 0.269081 42.7693 0.313532 42.0876C0.313532 41.5912 0.401956 41.2816 0.445929 41.158C1.37223 40.9713 1.85737 40.7852 2.38648 40.5998C3.26881 40.2895 3.62155 39.6084 3.66552 38.0588C3.7984 34.3397 3.7984 27.273 3.75395 22.3764V22.2521C3.75395 21.6946 3.75395 21.0122 3.26881 20.5165C2.56285 19.8972 1.72497 19.3397 0.622297 18.9045C0.225584 18.7197 -0.0392104 18.4094 0.0047627 18.038C0.0047627 17.6659 0.26956 17.232 0.843121 17.1077C2.29853 16.9217 6.09121 15.6206 7.59107 14.6903C7.6795 14.8139 7.81189 15.1867 7.81189 15.6824L7.76792 16.3635C7.72347 17.0459 7.6795 17.8519 7.6795 18.6573C7.6795 18.9051 7.85635 19.0912 8.03224 19.0912C8.12066 19.0912 8.20909 19.0294 8.29703 18.9669C11.1199 15.8678 13.678 14.7521 15.001 14.7521C17.1629 14.7521 18.8391 16.1781 20.1181 19.153C20.2061 19.3397 20.2945 19.4015 20.4269 19.4015C20.5149 19.4015 20.6468 19.3397 20.6912 19.2155C23.2938 16.426 25.8963 14.7521 27.616 14.7521C31.7179 14.7521 34.1441 19.0294 34.1441 26.2816C34.1441 28.3268 34.1441 30.9921 34.1001 33.4101C34.1001 35.579 34.0562 37.5625 34.0562 38.9884C34.0562 39.2974 34.3645 40.2895 34.8496 40.4756C35.4671 40.9095 36.3055 41.0955 37.4082 41.3434H37.4521C37.5406 41.7773 37.3642 43.3886 37.1878 43.699C36.923 43.699 36.5258 43.699 36.0851 43.6372C34.9686 43.5553 33.8507 43.5139 32.7327 43.5129C29.9982 43.5129 28.5868 43.5747 27.2188 43.699C27.1314 43.2033 27.0869 41.7155 27.2188 41.3434C28.0132 41.158 28.4099 40.9713 28.8955 40.7859C29.7779 40.4138 29.9982 39.8556 30.0427 38.2442C30.0427 37.0668 30.2186 27.0251 29.9538 24.6077C29.6895 22.1285 28.366 19.2155 25.4547 19.2155C24.352 19.2155 22.6323 19.8354 20.956 21.6322C20.8681 21.7564 20.7792 22.0661 20.7792 22.2521V22.3146C20.956 23.6156 20.956 25.1041 20.956 27.3972V31.426C20.956 34.2155 20.9116 36.8189 20.956 38.8017C20.956 40.1659 21.5296 40.4755 22.0147 40.7241C22.2795 40.7852 22.4554 40.8477 22.6762 40.9095C23.0729 41.0337 23.4701 41.158 24.0877 41.3434C24.1761 41.5919 24.1761 42.3972 24.0437 43.079C23.9992 43.4511 23.9108 43.6365 23.8668 43.699C22.3675 43.6372 20.8236 43.5747 18.5743 43.5747C17.9128 43.5747 16.7657 43.6372 15.7954 43.6372C15.001 43.6372 14.2516 43.699 13.8109 43.699C13.7664 43.5747 13.678 43.1415 13.678 42.459C13.678 41.9015 13.7664 41.4676 13.8548 41.3434C14.0752 41.2816 14.2516 41.2198 14.4724 41.2198C15.001 41.0955 15.4427 40.9712 15.8833 40.8477C16.6338 40.538 16.8981 39.9798 16.942 38.6163C17.0744 35.5172 17.2068 26.6537 16.8981 24.4217C16.369 20.8268 14.9135 19.0294 12.5753 19.0294C11.2083 19.0294 9.48765 19.959 8.07669 21.4475C7.85587 21.6946 7.6795 22.3139 7.6795 22.8721V26.5294C7.6795 30.9921 7.6795 36.5711 7.72347 38.9884C7.76792 39.7313 7.94381 40.5998 8.95854 40.9095C9.17936 40.9713 9.5321 41.0955 9.97327 41.158L10.7667 41.3434C10.8556 41.7155 10.8111 43.2033 10.6348 43.699C10.1936 43.699 9.6645 43.6372 9.04649 43.6372C8.12066 43.5747 6.92957 43.5129 5.60655 43.5129C4.06271 43.5129 2.96004 43.5747 2.07771 43.6372C1.46018 43.5129 0.97504 43.5129 0.445929 43.5129Z" fill="#0D0D0D" />
</svg>
