<svg width="209" height="112" viewBox="0 0 209 112" fill="none" xmlns="http://www.w3.org/2000/svg">
<path d="M104.451 111.974C162.138 111.974 208.902 86.9077 208.902 55.9869C208.902 25.0662 162.138 0 104.451 0C46.7643 0 0 25.0662 0 55.9869C0 86.9077 46.7643 111.974 104.451 111.974Z" fill="#060606"/>
<path fill-rule="evenodd" clip-rule="evenodd" d="M29.3319 89.1371L40.7791 29.4664H67.2484C78.6948 30.2033 84.4184 36.0961 84.4184 46.4104C84.4184 64.0904 70.8259 74.4038 58.6631 73.6669H45.787L42.9252 89.1371H29.3319ZM48.648 62.6174L52.2255 40.5168H61.5257C66.5336 40.5168 70.1102 42.7267 70.1102 47.1465C69.3954 59.6706 63.6718 61.8805 57.2334 62.6174H48.648ZM81.7589 73.6669L93.2053 13.9971H106.799L103.937 29.4664H116.814C128.261 30.2033 132.553 36.0961 131.123 43.4636L126.115 73.6669H111.807L116.814 46.4104C117.529 42.7267 117.529 40.5168 112.522 40.5168H101.791L95.3522 73.6669H81.7589ZM125.198 89.1371L136.645 29.4664H163.115C174.562 30.2033 180.286 36.0961 180.286 46.4104C180.286 64.0904 166.692 74.4038 154.53 73.6669H141.653L138.791 89.1371H125.198ZM144.514 62.6174L148.091 40.5168H157.392C162.4 40.5168 165.977 42.7267 165.977 47.1465C165.262 59.6706 159.538 61.8805 153.1 62.6174H144.514Z" fill="white"/>
</svg>
